HIERARCHY
ROOT Hips
{
	OFFSET 0.000000 89.005402 0.000000
	CHANNELS 6 Xposition Yposition Zposition Xrotation Yrotation Zrotation
	JOINT Spine
	{
		OFFSET 0.116900 10.681000 0.373400
		CHANNELS 3 Xrotation Yrotation Zrotation
		JOINT Spine1
		{
			OFFSET 0.000000 13.840401 0.053500
			CHANNELS 3 Xrotation Yrotation Zrotation
			JOINT Spine2
			{
				OFFSET 0.000000 14.712700 -0.366200
				CHANNELS 3 Xrotation Yrotation Zrotation
				JOINT Neck
				{
					OFFSET 0.000000 35.415497 -3.314200
					CHANNELS 3 Xrotation Yrotation Zrotation
					JOINT Head
					{
						OFFSET 0.000000 16.899200 1.218300
						CHANNELS 3 Xrotation Yrotation Zrotation
						JOINT HeadTop_End
						{
							OFFSET 0.000000 22.206207 2.192500
							CHANNELS 3 Xrotation Yrotation Zrotation
							End Site
							{
								OFFSET 0.000000 22.314178 0.000000
							}
						}
					}
				}
				JOINT LeftShoulder
				{
					OFFSET 12.896400 26.716293 -4.548400
					CHANNELS 3 Xrotation Yrotation Zrotation
					JOINT LeftArm
					{
						OFFSET 19.027000 -4.857010 -1.718400
						CHANNELS 3 Xrotation Yrotation Zrotation
						JOINT LeftForeArm
						{
							OFFSET 24.179897 0.000000 0.000000
							CHANNELS 3 Xrotation Yrotation Zrotation
							JOINT LeftHand
							{
								OFFSET 27.156403 0.000000 0.000000
								CHANNELS 3 Xrotation Yrotation Zrotation
								JOINT LeftHandIndex1
								{
									OFFSET 16.441200 0.000000 0.000000
									CHANNELS 3 Xrotation Yrotation Zrotation
									JOINT LeftHandIndex2
									{
										OFFSET 4.821899 0.000000 0.000000
										CHANNELS 3 Xrotation Yrotation Zrotation
										JOINT LeftHandIndex3
										{
											OFFSET 6.386497 0.000000 0.000000
											CHANNELS 3 Xrotation Yrotation Zrotation
											JOINT LeftHandIndex4
											{
												OFFSET 5.188988 0.000000 0.000000
												CHANNELS 3 Xrotation Yrotation Zrotation
												End Site
												{
													OFFSET -0.178703 5.185913 0.000177
												}
											}
										}
									}
								}
								JOINT LeftHandThumb1
								{
									OFFSET 6.534897 -5.032593 5.900300
									CHANNELS 3 Xrotation Yrotation Zrotation
									JOINT LeftHandThumb2
									{
										OFFSET 3.818176 -2.204422 2.204423
										CHANNELS 3 Xrotation Yrotation Zrotation
										JOINT LeftHandThumb3
										{
											OFFSET 3.252098 -1.877594 1.877601
											CHANNELS 3 Xrotation Yrotation Zrotation
											JOINT LeftHandThumb4
											{
												OFFSET 5.251778 -3.032120 3.032117
												CHANNELS 3 Xrotation Yrotation Zrotation
												End Site
												{
													OFFSET 0.000023 6.780014 0.000000
												}
											}
										}
									}
								}
							}
						}
					}
				}
				JOINT RightShoulder
				{
					OFFSET -12.896300 26.716293 -4.548400
					CHANNELS 3 Xrotation Yrotation Zrotation
					JOINT RightArm
					{
						OFFSET -19.027000 -4.857010 -1.718400
						CHANNELS 3 Xrotation Yrotation Zrotation
						JOINT RightForeArm
						{
							OFFSET -24.179897 0.000000 0.000000
							CHANNELS 3 Xrotation Yrotation Zrotation
							JOINT RightHand
							{
								OFFSET -27.156403 0.000000 0.000000
								CHANNELS 3 Xrotation Yrotation Zrotation
								JOINT RightHandThumb1
								{
									OFFSET -6.591202 -4.852203 5.988100
									CHANNELS 3 Xrotation Yrotation Zrotation
									JOINT RightHandThumb2
									{
										OFFSET -3.818176 -2.204422 2.204423
										CHANNELS 3 Xrotation Yrotation Zrotation
										JOINT RightHandThumb3
										{
											OFFSET -3.252098 -1.877594 1.877601
											CHANNELS 3 Xrotation Yrotation Zrotation
											JOINT RightHandThumb4
											{
												OFFSET -5.251778 -3.032120 3.032117
												CHANNELS 3 Xrotation Yrotation Zrotation
												End Site
												{
													OFFSET -0.000023 6.780014 0.000000
												}
											}
										}
									}
								}
								JOINT RightHandIndex1
								{
									OFFSET -16.029404 0.000000 0.000000
									CHANNELS 3 Xrotation Yrotation Zrotation
									JOINT RightHandIndex2
									{
										OFFSET -5.213303 0.000000 0.000000
										CHANNELS 3 Xrotation Yrotation Zrotation
										JOINT RightHandIndex3
										{
											OFFSET -6.386528 0.000000 0.000000
											CHANNELS 3 Xrotation Yrotation Zrotation
											JOINT RightHandIndex4
											{
												OFFSET -5.189026 0.000000 0.000000
												CHANNELS 3 Xrotation Yrotation Zrotation
												End Site
												{
													OFFSET 0.236702 5.183624 0.001972
												}
											}
										}
									}
								}
							}
						}
					}
				}
			}
		}
	}
	JOINT LeftUpLeg
	{
		OFFSET 14.073000 -7.904099 -1.463000
		CHANNELS 3 Xrotation Yrotation Zrotation
		JOINT LeftLeg
		{
			OFFSET -0.109806 -34.073280 4.093200
			CHANNELS 3 Xrotation Yrotation Zrotation
			JOINT LeftFoot
			{
				OFFSET 0.109806 -29.899420 -6.319000
				CHANNELS 3 Xrotation Yrotation Zrotation
				JOINT LeftToeBase
				{
					OFFSET 1.551100 -14.988700 20.535801
					CHANNELS 3 Xrotation Yrotation Zrotation
					JOINT LeftToe_End
					{
						OFFSET 0.221200 0.570800 13.248301
						CHANNELS 3 Xrotation Yrotation Zrotation
						End Site
						{
							OFFSET 0.000000 13.262435 0.000000
						}
					}
				}
			}
		}
	}
	JOINT RightUpLeg
	{
		OFFSET -13.839300 -7.904099 -1.463000
		CHANNELS 3 Xrotation Yrotation Zrotation
		JOINT RightLeg
		{
			OFFSET 0.109694 -34.073219 4.093300
			CHANNELS 3 Xrotation Yrotation Zrotation
			JOINT RightFoot
			{
				OFFSET -0.109694 -29.899384 -6.319200
				CHANNELS 3 Xrotation Yrotation Zrotation
				JOINT RightToeBase
				{
					OFFSET -1.551100 -14.988700 20.535801
					CHANNELS 3 Xrotation Yrotation Zrotation
					JOINT RightToe_End
					{
						OFFSET -0.221200 0.570900 13.248299
						CHANNELS 3 Xrotation Yrotation Zrotation
						End Site
						{
							OFFSET 0.000000 13.262440 0.000000
						}
					}
				}
			}
		}
	}
}
MOTION
Frames: 8
Frame Time: 0.033333
1.083341 74.865395 1.850378 18.798484 -14.104014 -1.021760 5.869497 7.293552 2.008045 4.023119 2.640848 -0.073798 4.023203 2.634771 0.054221 -6.245252 0.291345 0.360716 -16.862620 2.760571 -0.811210 -0.000000 0.000000 0.000000 0.305196 -13.066431 -13.100194 42.800503 -21.749228 -55.743486 0.000003 -37.342717 -0.000001 -31.577201 -0.843376 -0.197245 2.589225 5.864775 -84.173578 2.891929 5.049866 -59.575676 1.997194 4.405893 -48.752750 0.000002 0.000001 0.000002 -0.867990 1.559990 6.151903 11.980287 22.666449 4.033107 -8.762450 15.171385 12.293039 -0.000000 0.000001 0.000003 1.238928 23.426045 6.080377 -31.793028 8.744491 66.568157 -0.000012 71.933906 0.000019 -22.934853 20.811095 -4.394452 -1.752795 4.347746 -7.303322 12.280927 -24.605745 -4.500379 -8.273027 -12.876717 -11.679371 0.000001 -0.000002 -0.000000 2.472262 -4.676189 83.429859 2.304048 -4.020119 59.623563 1.591903 -3.507861 48.807145 0.000001 -0.000001 -0.000001 -71.077995 4.195656 18.282839 117.033816 7.718705 0.371542 42.924949 2.340014 5.660298 -1.976999 -0.000003 0.000004 -0.000001 -0.000000 0.000000 -13.114593 -6.975206 6.452280 42.720846 6.078541 0.792078 -39.937479 9.925128 -6.542198 -14.117572 0.000003 0.000001 -0.000000 0.000000 0.000000 
2.341934 74.165047 14.973905 20.699966 -6.757022 3.305709 5.813496 9.959410 -1.856886 3.892271 3.179473 -0.300385 3.880363 3.220470 -0.112545 -3.770045 -0.955574 -1.975086 -14.763205 -7.785196 0.947630 -0.000002 0.000000 -0.000000 0.906042 -12.729582 -7.633005 56.141600 -20.876060 -50.852995 -0.000008 -50.458548 0.000005 -24.969336 9.388066 -9.116245 1.125643 5.068738 -84.510224 2.815367 5.004280 -58.701958 1.925971 4.342588 -47.818851 -0.000001 -0.000002 0.000000 -2.077272 0.583302 8.374264 11.861421 22.524096 3.996406 -9.665393 10.396192 11.388354 0.000000 -0.000001 0.000000 3.250858 23.147479 -3.720658 -35.049833 11.035358 66.772162 -0.000963 88.234064 0.000927 -28.760738 31.521046 -9.373663 -2.040555 3.945168 -7.171948 11.908428 -23.762986 -4.356624 -8.017536 -7.621713 -11.834452 -0.000002 0.000001 0.000000 2.102991 -4.422893 78.090249 2.215599 -3.967057 58.353311 1.641375 -3.550479 49.611024 0.000001 -0.000002 0.000002 -87.645944 3.013402 9.058700 96.916641 8.359096 0.856076 34.012617 6.440154 6.094017 -6.389449 2.284750 -13.338953 0.000000 0.000000 -0.000002 -2.994414 -11.531263 -2.136773 37.728408 0.525431 0.870602 -41.610633 11.978784 1.071494 -25.245574 -0.000000 0.000000 0.000001 -0.000000 -0.000000 
2.955493 73.054382 25.344501 23.054501 -0.735339 7.342534 6.622124 10.260620 -5.821839 3.693550 3.092690 0.056063 3.646980 3.185151 0.191028 -2.147958 -1.665518 -3.392314 -17.395630 -14.877221 2.764404 0.000001 0.000000 -0.000000 0.140819 -12.582680 -7.027640 56.708896 -14.433607 -44.140845 -0.000010 -52.307443 -0.000007 -19.659217 10.732879 -13.421703 -0.115957 4.407495 -84.837274 2.751088 4.964797 -57.962194 1.866469 4.288076 -47.028086 -0.000003 0.000006 0.000003 -3.029303 -0.351588 10.247040 11.760537 22.403652 3.965597 -10.461306 6.361368 10.564879 -0.000001 -0.000001 -0.000001 1.630601 20.209451 -0.977845 -27.507822 9.785682 51.378172 -0.000005 96.709038 -0.000052 -30.184901 30.577305 -12.969304 -2.281608 3.602097 -7.059781 11.588302 -23.050077 -4.239183 -7.630686 -3.202702 -11.811843 0.000002 -0.000000 0.000000 1.806931 -4.165130 73.572332 2.141621 -3.920607 57.277802 1.683732 -3.586006 50.291793 0.000001 0.000003 -0.000002 -90.088768 5.395840 -0.881705 71.745700 6.923104 1.111876 19.295416 14.712782 3.560256 3.008452 1.131240 -9.777780 -0.000001 -0.000000 -0.000001 -2.831907 -12.464992 -7.854776 44.566653 -0.787639 -0.388138 -35.115802 -1.721296 6.839579 -30.596488 -0.125758 1.158626 0.000000 -0.000000 -0.000000 
3.899317 71.895874 34.659988 25.933953 2.823535 10.616561 7.450019 8.069738 -8.132231 3.304043 2.647899 0.859790 3.206416 2.787504 0.857803 -1.199480 -1.669916 -3.997365 -21.194188 -14.962894 1.477588 0.000002 -0.000000 -0.000000 -0.037245 -8.422924 -10.217859 51.374490 -9.861811 -42.176305 0.000003 -43.753919 -0.000011 -8.240172 10.902748 -14.930040 -0.973877 3.957964 -85.098666 2.706970 4.937010 -57.451016 1.825796 4.249930 -46.481770 0.000000 0.000000 -0.000001 -3.624796 -1.083697 11.538871 11.690515 22.320428 3.944725 -11.024503 3.578163 9.957530 0.000001 -0.000000 0.000001 1.928158 20.965479 1.561242 -12.732176 -2.994648 39.890296 0.001229 92.261936 -0.001265 -23.223584 7.062608 -19.513570 -2.445834 3.363309 -6.980499 11.362362 -22.557542 -4.164285 -7.223023 -0.177143 -11.626036 -0.000000 -0.000002 0.000000 1.608461 -3.957253 70.452991 2.091029 -3.887695 56.534647 1.713261 -3.610281 50.762273 0.000001 -0.000001 -0.000000 -87.859968 7.043442 -5.926176 45.277440 8.602554 1.126909 14.730900 18.084659 2.475669 5.556399 -0.000001 0.000005 0.000000 0.000000 -0.000000 -2.925274 -6.391350 -10.750806 48.897710 -8.647934 -1.000877 -24.225708 -11.014304 16.598608 -40.475848 -3.579734 6.942363 -0.000000 0.000000 -0.000000 
5.246904 70.546143 43.620064 29.107182 3.147373 12.784430 7.914877 5.397350 -9.301652 2.659993 2.265044 1.623692 2.515376 2.440651 1.462925 -0.148240 -1.025019 -4.691928 -22.560610 -11.324324 -0.355799 -0.000000 -0.000000 -0.000000 0.739329 -4.623396 -14.656217 52.837346 -2.629546 -46.958715 -0.000000 -39.760638 0.000002 1.575356 4.680845 -17.693277 -1.356296 3.758471 -85.244859 2.687267 4.924434 -57.221873 1.807684 4.232692 -46.236819 -0.000002 -0.000002 -0.000002 -3.842081 -1.478977 12.122053 11.658879 22.283074 3.935806 -11.269233 2.330825 9.667274 0.000001 -0.000000 0.000002 2.298598 23.968867 2.964056 5.206551 -22.555580 37.652900 -0.000018 74.393369 0.000032 -7.963357 -15.048073 -14.168847 -2.517495 3.254899 -6.942672 11.256539 -22.336303 -4.138445 -6.924274 1.156479 -11.354248 0.000001 0.000001 -0.000001 1.514323 -3.845261 69.056013 2.068479 -3.872736 56.201488 1.726586 -3.621095 50.973213 0.000000 -0.000000 0.000002 -86.521558 5.505024 -7.677550 22.480029 10.587887 1.284663 18.020981 23.696991 -2.009828 -0.237157 0.000014 0.000002 0.000001 -0.000000 0.000001 -1.942243 -4.306806 -14.031539 47.223125 -10.523767 -0.295047 -15.697458 -13.885787 23.903504 -44.808319 -6.949744 10.387858 -0.000000 0.000000 -0.000000 
6.624182 69.950096 53.300331 32.472864 1.754462 13.414769 8.382637 3.754934 -9.714299 2.224414 2.251943 1.966837 2.050700 2.439002 1.700350 1.205051 -0.183204 -5.883171 -21.366201 -9.534117 0.166205 -0.000001 -0.000000 -0.000000 1.499556 -1.633068 -15.758725 56.329919 3.795125 -53.810764 0.000004 -34.253487 0.000002 11.635723 -10.213054 -21.122203 -1.112324 3.881456 -85.206405 2.699485 4.932252 -57.364191 1.818923 4.243417 -46.388961 0.000001 0.000001 -0.000000 -3.623105 -1.353532 11.772064 11.677981 22.306177 3.942335 -11.083427 3.102377 9.829149 -0.000000 -0.000000 -0.000001 2.462226 24.980546 2.134480 20.176638 -36.935426 46.097336 -0.000025 56.969191 0.000020 -3.020436 -20.388775 -7.265199 -2.508692 3.263492 -6.943094 11.260864 -22.355976 -4.150720 -6.814974 1.008959 -11.141855 -0.000000 0.000000 0.000000 1.510084 -3.839148 69.185998 2.070555 -3.874137 56.232217 1.725360 -3.620097 50.953734 0.000001 -0.000002 0.000001 -86.787280 -0.016696 -7.302136 6.141219 11.070342 1.521492 16.533824 28.727455 -3.758254 -2.881635 0.000007 -0.000002 0.000001 -0.000001 -0.000002 -0.176544 -6.798037 -16.656666 39.826505 -12.107519 0.563686 -4.008027 -12.574227 27.121085 -42.673560 -14.127877 18.738040 -0.000000 -0.000001 -0.000000 
7.542793 70.045639 64.709381 36.057911 -0.892147 12.124498 8.531973 4.359337 -8.708166 1.804816 2.475386 1.844430 1.620142 2.641100 1.520246 1.781287 0.458150 -6.911765 -19.013022 -8.531904 2.227161 0.000001 -0.000000 -0.000001 2.252606 -0.979893 -17.179078 52.126132 7.597508 -58.676461 -0.000007 -27.372668 -0.000008 16.832972 -20.711659 -19.486043 -0.180922 4.364360 -84.952500 2.747102 4.962324 -57.916343 1.862808 4.284669 -46.979100 -0.000000 -0.000001 -0.000000 -2.940726 -0.630217 10.383737 11.753285 22.396009 3.965452 -10.451569 6.105914 10.477496 -0.000002 -0.000000 0.000001 2.535036 25.650772 1.574631 29.884332 -42.731692 54.138839 -0.000012 51.693641 0.000010 -6.281175 -17.819359 -5.656749 -2.483145 3.298740 -6.953478 11.292357 -22.429493 -4.166508 -6.814073 0.545071 -11.061184 0.000001 -0.000000 0.000001 1.532146 -3.864315 69.654262 2.078103 -3.879146 56.343740 1.720888 -3.616495 50.883147 0.000001 -0.000002 -0.000001 -86.180738 -2.939901 -5.292500 -1.311852 10.366127 1.549398 12.941247 29.049717 0.755380 -1.478708 -0.000005 -0.000003 0.000000 -0.000003 -0.000002 -0.961980 -9.997322 -17.992113 32.160765 -12.729112 1.314422 7.591458 -10.337473 27.858624 -34.026339 -20.463281 29.555359 -0.000000 0.000001 -0.000000 
7.817288 70.325432 77.257751 40.047154 -4.445679 10.294731 8.637765 6.189847 -7.426846 1.755045 2.642722 1.264665 1.576443 2.755664 0.930559 0.269407 0.824286 -7.028640 -18.625157 -7.008617 3.434549 -0.000001 -0.000000 -0.000001 3.026679 -1.988581 -20.909301 38.747414 6.051368 -57.246172 -0.000001 -24.644784 0.000021 9.595951 -20.599319 -14.331810 0.853780 4.913553 -84.662298 2.800649 4.995357 -58.533273 1.912339 4.330234 -47.638541 0.000001 0.000000 -0.000000 -2.179600 0.188952 8.820073 11.837609 22.496488 3.990852 -9.790347 9.470250 11.174806 0.000000 0.000001 -0.000002 2.478729 26.124683 1.966954 33.055322 -43.364687 58.308990 -0.000034 49.379525 0.000016 -11.104991 -12.490937 -5.474942 -2.433578 3.369943 -6.976359 11.358618 -22.576644 -4.191591 -6.893944 -0.364958 -11.056943 -0.000001 -0.000001 0.000002 1.585094 -3.924885 70.587601 2.093165 -3.889109 56.566107 1.712014 -3.609275 50.742343 -0.000002 -0.000002 -0.000001 -88.164533 -1.218633 -2.583848 2.762320 9.366430 1.459356 18.535752 22.549376 3.105301 -2.903065 -0.000006 0.000007 -0.000002 -0.000001 0.000000 -2.121403 -13.893155 -18.242095 22.262074 -12.378286 1.707763 19.353652 -7.960917 27.628703 -23.819402 -23.173543 38.778252 0.000001 -0.000000 0.000000 
